HIERARCHY
ROOT hip
{
  OFFSET 0 0 0
  CHANNELS 6 Xposition Yposition Zposition Zrotation Yrotation Xrotation
  JOINT abdomen
  {
    OFFSET 0 20.6881 -0.73152
    CHANNELS 3 Zrotation Xrotation Yrotation
    JOINT chest
    {
      OFFSET 0 11.7043 -0.48768
      CHANNELS 3 Zrotation Xrotation Yrotation
      JOINT neck
      {
        OFFSET 0 22.1894 -2.19456
        CHANNELS 3 Zrotation Xrotation Yrotation
        JOINT head
        {
          OFFSET -0.24384 7.07133 1.2192
          CHANNELS 3 Zrotation Xrotation Yrotation
          JOINT leftEye
          {
            OFFSET 4.14528 8.04674 8.04672
            CHANNELS 3 Zrotation Xrotation Yrotation
            End Site
            {
              OFFSET 1 0 0
            }
          }
          JOINT rightEye
          {
            OFFSET -3.6576 8.04674 8.04672
            CHANNELS 3 Zrotation Xrotation Yrotation
            End Site
            {
              OFFSET 1 0 0
            }
          }
        }
      }
      JOINT rCollar
      {
        OFFSET -2.68224 19.2634 -4.8768
        CHANNELS 3 Zrotation Xrotation Yrotation
        JOINT rShldr
        {
          OFFSET -8.77824 -1.95073 1.46304
          CHANNELS 3 Zrotation Xrotation Yrotation
          JOINT rForeArm
          {
            OFFSET -28.1742 -1.7115 0.48768
            CHANNELS 3 Zrotation Xrotation Yrotation
            JOINT rHand
            {
              OFFSET -22.5879 0.773209 7.07136
              CHANNELS 3 Zrotation Xrotation Yrotation
              JOINT rThumb1
              {
                OFFSET -1.2192 -0.487915 3.41376
                CHANNELS 3 Zrotation Xrotation Yrotation
                JOINT rThumb2
                {
                  OFFSET -3.37035 -0.52449 3.41376
                  CHANNELS 3 Zrotation Xrotation Yrotation
                  End Site
                  {
                    OFFSET -1.78271 -1.18214 1.43049
                  }
                }
              }
              JOINT rIndex1
              {
                OFFSET -7.75947 0.938293 5.60832
                CHANNELS 3 Zrotation Xrotation Yrotation
                JOINT rIndex2
                {
                  OFFSET -2.54057 -0.884171 1.56538
                  CHANNELS 3 Zrotation Xrotation Yrotation
                  End Site
                  {
                    OFFSET -1.62519 -0.234802 1.16502
                  }
                }
              }
              JOINT rMid1
              {
                OFFSET -8.24714 1.18213 3.41376
                CHANNELS 3 Zrotation Xrotation Yrotation
                JOINT rMid2
                {
                  OFFSET -3.10165 -0.590103 1.0647
                  CHANNELS 3 Zrotation Xrotation Yrotation
                  End Site
                  {
                    OFFSET -2.48547 -0.328903 0.83742
                  }
                }
              }
              JOINT rRing1
              {
                OFFSET -8.82822 0.546677 1.51678
                CHANNELS 3 Zrotation Xrotation Yrotation
                JOINT rRing2
                {
                  OFFSET -2.60934 -0.819778 -0.0198488
                  CHANNELS 3 Zrotation Xrotation Yrotation
                  End Site
                  {
                    OFFSET -2.33842 -0.294052 0.168128
                  }
                }
              }
              JOINT rPinky1
              {
                OFFSET -8.27202 -0.0477905 -0.4584
                CHANNELS 3 Zrotation Xrotation Yrotation
                JOINT rPinky2
                {
                  OFFSET -1.82734 -0.647385 -0.700984
                  CHANNELS 3 Zrotation Xrotation Yrotation
                  End Site
                  {
                    OFFSET -1.69225 -0.51767 -0.607171
                  }
                }
              }
            }
          }
        }
      }
      JOINT lCollar
      {
        OFFSET 2.68224 19.2634 -4.8768
        CHANNELS 3 Zrotation Xrotation Yrotation
        JOINT lShldr
        {
          OFFSET 8.77824 -1.95073 1.46304
          CHANNELS 3 Zrotation Xrotation Yrotation
          JOINT lForeArm
          {
            OFFSET 28.1742 -1.7115 0.48768
            CHANNELS 3 Zrotation Xrotation Yrotation
            JOINT lHand
            {
              OFFSET 22.5879 0.773209 7.07136
              CHANNELS 3 Zrotation Xrotation Yrotation
              JOINT lThumb1
              {
                OFFSET 1.2192 -0.487915 3.41376
                CHANNELS 3 Zrotation Xrotation Yrotation
                JOINT lThumb2
                {
                  OFFSET 3.37035 -0.52449 3.41376
                  CHANNELS 3 Zrotation Xrotation Yrotation
                  End Site
                  {
                    OFFSET 1.78271 -1.18214 1.43049
                  }
                }
              }
              JOINT lIndex1
              {
                OFFSET 7.75947 0.938293 5.60832
                CHANNELS 3 Zrotation Xrotation Yrotation
                JOINT lIndex2
                {
                  OFFSET 2.54057 -0.884171 1.56538
                  CHANNELS 3 Zrotation Xrotation Yrotation
                  End Site
                  {
                    OFFSET 1.62519 -0.234802 1.16502
                  }
                }
              }
              JOINT lMid1
              {
                OFFSET 8.24714 1.18213 3.41376
                CHANNELS 3 Zrotation Xrotation Yrotation
                JOINT lMid2
                {
                  OFFSET 3.10165 -0.590103 1.0647
                  CHANNELS 3 Zrotation Xrotation Yrotation
                  End Site
                  {
                    OFFSET 2.48547 -0.328903 0.83742
                  }
                }
              }
              JOINT lRing1
              {
                OFFSET 8.82822 0.546677 1.51678
                CHANNELS 3 Zrotation Xrotation Yrotation
                JOINT lRing2
                {
                  OFFSET 2.60934 -0.819778 -0.0198488
                  CHANNELS 3 Zrotation Xrotation Yrotation
                  End Site
                  {
                    OFFSET 2.33842 -0.294052 0.168128
                  }
                }
              }
              JOINT lPinky1
              {
                OFFSET 8.27202 -0.0477905 -0.4584
                CHANNELS 3 Zrotation Xrotation Yrotation
                JOINT lPinky2
                {
                  OFFSET 1.82734 -0.647385 -0.700984
                  CHANNELS 3 Zrotation Xrotation Yrotation
                  End Site
                  {
                    OFFSET 1.69225 -0.51767 -0.607171
                  }
                }
              }
            }
          }
        }
      }
    }
  }
  JOINT rButtock
  {
    OFFSET -8.77824 4.35084 1.2192
    CHANNELS 3 Zrotation Xrotation Yrotation
    JOINT rThigh
    {
      OFFSET 0 -1.70687 -2.19456
      CHANNELS 3 Zrotation Xrotation Yrotation
      JOINT rShin
      {
        OFFSET 0 -36.8199 0.73152
        CHANNELS 3 Zrotation Xrotation Yrotation
        JOINT rFoot
        {
          OFFSET 0.73152 -45.1104 -5.12064
          CHANNELS 3 Zrotation Xrotation Yrotation
          End Site
          {
            OFFSET -1.1221 -3.69964 12.103
          }
        }
      }
    }
  }
  JOINT lButtock
  {
    OFFSET 8.77824 4.35084 1.2192
    CHANNELS 3 Zrotation Xrotation Yrotation
    JOINT lThigh
    {
      OFFSET 0 -1.70687 -2.19456
      CHANNELS 3 Zrotation Xrotation Yrotation
      JOINT lShin
      {
        OFFSET 0 -36.8199 0.73152
        CHANNELS 3 Zrotation Xrotation Yrotation
        JOINT lFoot
        {
          OFFSET -0.73152 -45.1104 -5.12064
          CHANNELS 3 Zrotation Xrotation Yrotation
          End Site
          {
            OFFSET 1.1221 -3.69964 12.103
          }
        }
      }
    }
  }
}
MOTION
Frames:	5
Frame Time:	0.03333
-77.7065 51.0856 -38.122499999999995 160.398643 50.181753 173.673046 -12.840763 25.698572 -0.0 -3.253584 -12.374127 17.583209 11.407946 24.636993 100.044075 -27.989823 16.080367 -56.761962 -0.000279 -0.0 0.000437 -0.000279 -0.0 0.000437 -158.897539 -36.946449 168.196823 153.620065 11.63522 -169.82564 -101.775269 -27.467417 63.852798 42.539311 -60.547369 30.96013 -78.031324 38.688729 42.412271 -128.23401 -21.195192 81.251393 -69.683072 43.29262 57.341782 -135.583634 29.693191 102.149839 2.101214 -6.305203 -1.081919 168.01286 -64.089147 133.24162 -145.119289 0.267817 -179.212274 11.595604 58.593156 -1.701065 -154.76041 47.459084 -149.267577 -147.155673 8.740232 -141.183267 -0.117687 -0.714069 0.158034 -62.477542 11.803123 -2.329026 127.874819 -19.46137 -37.957375 -156.611293 -61.799512 -133.264716 94.791686 37.82832 -54.283685 -24.728873 -30.437117 -23.178763 162.782856 -37.706946 -122.639572 84.578957 56.49369 -68.272007 39.289846 53.365571 -32.878706 151.565859 24.894765 -137.075684 145.119749 0.184928 179.187692 73.702745 -78.005055 95.207888 -12.987302 44.344399 -10.762862 155.194017 36.596508 147.929263 0.005035 -0.001993 0.002517 -83.751702 -55.091028 0.0 97.804653 29.116023 -174.692276 37.260175 38.45985 69.827359 -179.979057 75.749872 -0.014329 -156.264399 28.053729 41.686511 78.676975 48.114664 -168.263345 22.481482 30.644682 89.466183
-78.55879999999999 49.4811 -38.5529 163.269311 49.090345 175.589064 -12.354038 25.165798 4.84981 -4.704009 -12.296594 12.946656 -2.905867 34.002649 -151.733357 17.319051 35.674144 -171.212049 0.003365 -0.0 -0.001029 0.001082 0.0 0.003177 -13.744129 42.431357 15.569935 -128.9152 -17.33032 146.066175 169.254972 17.557476 -73.694747 -16.74461 50.79449 6.614386 -5.333671 5.171247 1.052765 -5.300177 6.402974 7.719658 88.791895 -75.499475 40.049459 -84.123299 52.505441 70.57741 -8.416815 20.880541 5.644367 -155.411034 16.762853 139.601506 -0.02133 -1.724931 -0.543932 11.434147 -47.396148 -5.958662 -126.797881 -26.620444 -124.513771 47.343776 80.629184 -10.094001 -3.541069 -62.052985 13.04072 -71.542962 38.27668 46.841936 84.264231 -33.804122 -73.77863 -58.191105 -76.444293 -41.558727 121.363705 30.328666 -71.957595 -174.291205 -33.781105 -77.155795 -5.922531 -10.174362 2.967615 157.20473 -9.213408 -110.323186 -89.035285 -81.393232 -59.760724 172.387647 -31.321941 -143.872347 72.756214 -72.143716 89.772006 144.433926 -56.342446 172.391506 -44.734415 86.377641 5.366306 161.039456 52.873748 148.263127 0.0 0.000514 -0.000717 -84.67487 -54.590267 -84.279842 -108.125622 67.248354 36.240608 97.835138 54.21838 4.754415 -0.003228 0.000515 -0.003228 32.862169 -44.845843 -180.0 98.622787 -65.120933 56.068941 -32.369455 8.480983 -118.803394
-79.04769999999999 48.3056 -38.7415 163.650612 48.789787 175.862775 -10.63972 23.472959 -70.012313 9.045033 -9.237657 89.17939 10.078725 21.223028 81.052844 -27.846694 5.04889 -38.53154 -0.001101 -0.0 0.00428 0.001017 0.0 0.000269 -153.155716 9.522835 158.797314 176.324882 44.542125 138.515849 -127.827969 -69.831021 90.154261 151.840776 -46.460275 133.368735 -103.199939 36.330694 60.110838 -8.932916 -17.901657 27.739788 -151.352981 -17.158788 121.132361 31.744254 -39.402091 -7.839805 -10.974448 25.790227 7.639534 -175.128091 -39.383024 143.320344 -70.381715 -72.130439 -87.279781 14.570349 15.302702 -2.573968 -1.148918 -2.914357 -1.066569 -147.696883 13.066295 -144.028328 155.417274 -2.951429 -161.718557 119.355553 -87.439785 78.981661 28.49807 76.933125 109.570309 179.667031 -11.609125 -143.423955 -179.142679 -18.272379 -89.129879 -173.924845 -23.355131 -102.191891 46.207759 39.654089 -36.317245 75.912261 50.472396 -54.893532 160.574672 -6.359014 -143.198555 163.024043 -3.986444 -142.87923 145.099249 -1.521328 178.650618 -11.938892 26.284144 6.003747 124.147875 -29.857915 121.936315 -4.407706 3.38765 0.619463 0.000676 0.00094 -0.000869 -89.10935 -53.160996 0.746564 93.684816 16.895627 -80.983047 108.668439 -23.768853 9.123128 0.003277 -0.000821 0.001639 34.997517 -46.606597 -180.0 81.210094 -57.144344 -131.516531 -142.512851 -56.288382 -54.436085
-79.3346 47.674299999999995 -39.0615 165.272607 49.069027 177.044319 -13.579759 24.517235 5.201916 -3.50992 -12.770753 13.773374 -11.518197 22.164583 -63.506193 30.930333 -1.482883 109.716673 -0.002225 -0.0 0.000694 -0.002225 -0.0 0.000694 -158.921191 -37.397083 168.281624 -40.773311 -21.986426 -14.766152 4.54938 5.342723 -135.114271 164.343926 -27.334818 142.062613 51.059318 -41.20423 12.856755 -18.950663 0.309156 -12.37966 -83.732561 42.32993 69.989999 -103.776367 48.972505 78.048798 -10.976891 25.789614 7.640569 173.37167 -58.97659 137.125584 0.003964 0.917723 0.288722 -155.486134 -1.108088 171.981289 -26.563872 -38.86047 -25.607049 -77.251002 -54.424998 -77.640403 33.843539 -85.665335 55.260969 79.818278 -40.882982 99.852936 -89.746778 -34.856826 106.753728 116.301415 65.154928 -93.353002 89.136036 38.427763 -50.299269 -32.873348 -33.007367 -22.190672 5.796497 8.772809 -3.565096 167.25542 -20.190302 -109.663141 175.765278 -50.334554 -144.09968 88.744831 63.760368 -80.322203 145.119156 0.185675 179.185877 151.850005 -28.049243 174.712778 141.828799 2.24584 138.804888 153.176702 29.760268 145.11471 -0.000293 0.000308 -0.000293 -87.45543 -54.51456 -87.68639 -112.437252 65.522039 34.437308 162.522306 -79.72913 -107.073318 -0.000293 0.000308 -0.000293 37.410038 -45.247996 29.047507 -51.168342 82.636234 16.75765 69.099502 29.251034 21.841065
-79.578 47.3945 -39.432 167.322239 49.033589 177.93853 -9.780694 22.975855 -65.991339 8.574071 -10.000836 86.359556 10.949207 25.520805 102.922609 -28.760694 16.199268 -56.774457 0.001046 0.0 0.004323 0.000298 0.0 0.00269 -130.361291 54.596647 134.227245 179.879332 1.733514 123.058667 174.71069 -74.706567 34.990172 164.741636 -26.770452 142.196623 -80.965967 38.736375 44.498441 33.484476 -31.969902 20.177197 -1.397426 2.231401 0.808565 -152.274817 0.024101 109.267744 -160.825962 -7.142197 143.315042 -163.293232 -4.786141 142.964385 -0.009917 -0.872293 -0.274147 10.390029 0.215256 -0.040094 0.101155 0.257749 0.092003 -24.250474 -41.353537 -24.923432 130.419884 54.54928 -134.28793 -78.458905 -42.663414 -102.251812 109.488153 -24.311266 -25.163534 -64.150996 -77.019563 -47.228884 176.069561 -13.696945 -89.738118 -172.806299 -23.450126 -99.49247 -5.919962 -10.174995 2.968327 8.482638 25.889388 -8.160918 -7.905143 -24.807441 3.013297 85.984089 64.226391 -77.746241 5.3e-05 0.063589 -0.021262 154.678769 8.249455 -170.756464 1.17728 -2.985552 1.091791 127.26686 -31.004623 125.737808 -179.993496 75.75101 -0.005352 143.455652 -8.990481 -7.434444 -108.507589 68.291015 50.789535 93.687899 41.714311 7.146787 -179.999113 75.74925 -0.000607 -152.934494 19.959967 69.958172 90.681309 6.291595 -34.606732 68.989319 -52.650789 -7.568377
